<?xml version="1.0" encoding="utf-8"?>
<!-- Generator: Adobe Illustrator 22.1.0, SVG Export Plug-In . SVG Version: 6.00 Build 0)  -->
<svg version="1.1" id="Layer_1" xmlns="http://www.w3.org/2000/svg" xmlns:xlink="http://www.w3.org/1999/xlink" x="0px" y="0px"
	 viewBox="0 0 512 512" style="enable-background:new 0 0 512 512;" xml:space="preserve">
<g>
	<title>django</title>
	<g>
		<path d="M265.2,31h73.6v340.6c-37.7,7.2-65.5,10-95.6,10c-89.8,0-136.6-40.6-136.6-118.5c0-75,49.7-123.7,126.6-123.7
			c11.9,0,21,1,32,3.8L265.2,31z M265.2,202.5c-8-2.7-16.4-4-24.8-3.9c-37.3,0-58.7,22.9-58.7,63.1c0,39.2,20.5,60.7,58.3,60.7
			c8.1,0,14.8-0.4,25.3-1.9V202.5L265.2,202.5z M455.8,144.6v170.6c0,58.7-4.2,87-17.1,111.3c-11.9,23.4-27.8,38.2-60.2,54.5
			l-68.3-32.5c32.4-15.3,48.3-28.6,58.3-49.2c10.5-21,13.8-45.4,13.8-109.4V144.6H455.8z M382.3,31.4h73.5v75.5h-73.5V31.4z"/>
	</g>
</g>
</svg>
